<svg xmlns="http://www.w3.org/2000/svg" viewBox="0 0 27.8 41.27"><defs><style>.cls-1{fill:#2accff;stroke:#0071bc;}.cls-1,.cls-2{stroke-miterlimit:10;}.cls-2{fill:none;stroke:#fff;}</style></defs><title>m1</title><g id="Capa_2" data-name="Capa 2"><g id="Capa_1-2" data-name="Capa 1"><path class="cls-1" d="M13.9.5C6.5.5.5,7.05.5,15.14c0,8.65,13.4,25.34,13.4,25.34s13.4-16,13.4-25.34C27.3,7.05,21.3.5,13.9.5Zm0,21A6,6,0,0,1,8.15,15.2a6,6,0,0,1,5.76-6.3,6,6,0,0,1,5.76,6.3A6,6,0,0,1,13.91,21.49Z"/><path class="cls-2" d="M13.91,1.09C6.88,1.09,1.19,7.32,1.19,15c0,8.21,12.72,24.07,12.72,24.07S26.64,23.82,26.64,15C26.64,7.32,20.94,1.09,13.91,1.09Zm0,19.94a5.74,5.74,0,0,1-5.48-6,5.74,5.74,0,0,1,5.48-6,5.74,5.74,0,0,1,5.47,6A5.74,5.74,0,0,1,13.93,21Z"/></g></g></svg>